FFmpeg version SVN-r25716, Copyright (c) 2000-2010 the FFmpeg developers  built on Nov 10 2010 12:23:18 with gcc 4.1.2 20080704 (Red Hat 4.1.2-48)  configuration: --enable-libmp3lame --enable-shared --disable-mmx --arch=x86_64  libavutil     50.33. 0 / 50.33. 0  libavcore      0.12. 1 /  0.12. 1  libavcodec    52.94. 4 / 52.94. 4  libavformat   52.84. 0 / 52.84. 0  libavdevice   52. 2. 2 / 52. 2. 2  libavfilter    1.59. 0 /  1.59. 0  libswscale     0.12. 0 /  0.12. 0Seems stream 0 codec frame rate differs from container frame rate: 1200.00 (1200/1) -> 10.00 (10/1)Input #0, mov,mp4,m4a,3gp,3g2,mj2, from '/RAID10/data/converted_video_files/42166.mov':  Metadata:    major_brand     : qt      minor_version   : 537199360    compatible_brands: qt    Duration: 00:00:25.20, start: 0.000000, bitrate: 734 kb/s    Stream #0.0(eng): Video: h264, yuv420p, 720x480, 732 kb/s, PAR 10:11 DAR 15:11, 10 fps, 10 tbr, 600 tbn, 1200 tbc[buffer @ 0x13bfe950] w:720 h:480 pixfmt:yuv420pOutput #0, flv, to '/RAID10/data/converted_video_files/42166.flv':  Metadata:    encoder         : Lavf52.84.0    Stream #0.0(eng): Video: flv, yuv420p, 720x480 [PAR 10:11 DAR 15:11], q=2-31, 600 kb/s, 1k tbn, 24 tbcStream mapping:  Stream #0.0 -> #0.0Press [q] to stop encodingframe=   43 fps=  0 q=5.3 size=     270kB time=4.25 bitrate= 520.4kbits/s    frame=   87 fps= 84 q=5.9 size=     514kB time=8.62 bitrate= 488.4kbits/s    frame=  132 fps= 86 q=4.7 size=     760kB time=13.12 bitrate= 474.6kbits/s    frame=  172 fps= 84 q=3.9 size=    1009kB time=17.12 bitrate= 482.7kbits/s    frame=  208 fps= 82 q=3.9 size=    1225kB time=20.75 bitrate= 483.6kbits/s    frame=  248 fps= 81 q=3.4 size=    1478kB time=24.75 bitrate= 489.4kbits/s    frame=  252 fps= 77 q=3.4 Lsize=    1513kB time=25.12 bitrate= 493.3kbits/s    video:1509kB audio:0kB global headers:0kB muxing overhead 0.274537%